# xmcd
# 
# Track frame offsets:
#     150
#     37170
#     68962
#     99635
#     126402
#     146470
#     198922
#     228160
# 
# Disc length: 3673
# 
# Revision: 5
# Processed by: cddbd v1.5.2PL0 Copyright (c) Steve Scherf et al.
# Submitted via: fre:ac v1.0.31
# 
DISCID=720e5708
DTITLE=Weather Report - Live And Unreleased Disc 1
DYEAR=2002
DGENRE=Jazz
TTITLE0=Freezing Fire
TTITLE1=Plaza Real
TTITLE2=Fast City
TTITLE3=Portrait Of Tracy
TTITLE4=Elegant People
TTITLE5=Cucumber Slumber
TTITLE6=Teen Town
TTITLE7=Man In The Green Shirt
EXTD=Composers and recording years:\n1. W. Shorter, 1975\n2. W. Shorter, 1983\n3. J. Zawinul, 1980\n4. J. Pastorius, 1977\n5. W. Shorter, 1977\n6. A. Johnson-J. Zawinul, 1975\n7. J. Pastorius, 1977\n8. J. Zawinul, 1975
EXTT0=
EXTT1=
EXTT2=
EXTT3=
EXTT4=
EXTT5=
EXTT6=
EXTT7=
PLAYORDER=
